<?xml version="1.0" standalone="no"?>
<!DOCTYPE svg PUBLIC "-//W3C//DTD SVG 20010904//EN"
 "http://www.w3.org/TR/2001/REC-SVG-20010904/DTD/svg10.dtd">
<svg version="1.0" xmlns="http://www.w3.org/2000/svg"
 width="600.000000pt" height="600.000000pt" viewBox="0 0 600.000000 600.000000"
 preserveAspectRatio="xMidYMid meet">
<metadata>
Created by potrace 1.11, written by Peter Selinger 2001-2013
</metadata>
<g transform="translate(0.000000,600.000000) scale(0.100000,-0.100000)"
fill="#000000" stroke="none">
<path d="M3077 5623 c-4 -3 -7 -26 -7 -50 0 -56 24 -54 28 2 3 37 -8 62 -21
48z"/>
<path d="M3149 5543 c-8 -9 -29 -22 -46 -30 l-33 -13 0 -100 c0 -82 3 -100 15
-100 12 0 15 16 15 88 l0 88 35 17 c26 13 35 23 35 42 0 29 -3 31 -21 8z"/>
<path d="M2991 5481 c-20 -13 3 -23 33 -15 14 3 23 10 20 15 -7 11 -35 11 -53
0z"/>
<path d="M3055 5271 c-3 -5 4 -12 15 -16 12 -4 20 -15 20 -29 0 -18 -8 -25
-32 -32 l-33 -8 37 -3 c20 -2 42 -11 48 -19 11 -12 6 -14 -26 -14 -22 -1 -52
-7 -69 -15 -28 -13 -26 -13 53 -14 75 -1 82 -3 82 -21 0 -18 -7 -20 -75 -20
-105 0 -152 -26 -110 -60 21 -17 20 -114 -2 -165 -14 -35 -26 -45 -96 -79
-103 -49 -171 -116 -220 -216 -20 -41 -39 -91 -42 -110 -4 -26 0 -19 18 26 53
137 130 224 247 276 36 16 72 33 80 37 35 17 51 73 48 161 l-3 85 30 6 c74 16
72 19 77 -88 3 -54 9 -106 13 -115 4 -10 26 -23 48 -29 103 -27 229 -115 283
-196 53 -80 94 -202 94 -281 0 -42 -4 -61 -11 -57 -6 4 -8 10 -5 13 4 3 -3 16
-15 28 -14 15 -17 24 -9 29 8 5 5 11 -7 21 -17 13 -17 13 2 14 19 0 18 2 -4
19 -17 13 -20 20 -12 26 9 5 8 12 -5 26 -10 11 -12 19 -6 19 20 0 13 16 -10
28 -22 10 -22 11 -3 12 18 1 16 4 -10 25 -26 22 -27 25 -10 25 18 1 17 3 -7
21 -16 11 -28 29 -28 38 0 10 -11 23 -25 29 -14 6 -22 17 -20 25 4 8 -8 18
-30 26 -19 7 -35 16 -35 22 0 16 -79 59 -110 59 -36 0 -39 -13 -7 -28 20 -10
20 -11 -13 -11 -26 -1 -31 -4 -20 -11 8 -5 27 -10 41 -10 14 0 34 -7 45 -15
17 -13 14 -14 -41 -16 l-60 -1 74 -13 c83 -15 128 -42 51 -30 -108 16 -115 16
-100 7 8 -5 43 -14 78 -20 34 -6 72 -18 85 -28 22 -16 22 -16 -8 -10 -16 3
-61 8 -100 11 -60 4 -65 3 -38 -6 27 -10 32 -17 35 -53 3 -22 8 -49 12 -58 6
-13 4 -18 -7 -18 -20 0 -45 -30 -26 -30 10 -1 9 -4 -4 -14 -16 -12 -13 -14 22
-20 68 -11 58 -26 -17 -26 -53 0 -103 -10 -216 -45 -82 -25 -150 -45 -152 -45
-2 0 -4 9 -4 19 0 11 -5 23 -11 26 -15 10 -93 -4 -115 -20 -17 -12 -15 -13 19
-5 37 8 77 4 77 -9 0 -3 -26 -14 -57 -23 -32 -8 -89 -27 -128 -42 -63 -23 -71
-24 -82 -9 -9 12 -25 15 -73 11 -33 -2 -66 -10 -72 -16 -10 -10 -5 -11 21 -6
18 4 56 1 85 -6 50 -12 57 -11 159 25 59 20 135 41 170 45 34 5 100 21 147 35
163 49 216 57 255 41 19 -8 35 -16 35 -18 0 -2 -37 -4 -83 -5 -52 -1 -104 -9
-142 -22 -79 -26 -167 -48 -235 -56 -30 -4 -66 -13 -80 -20 -46 -24 -153 -55
-239 -70 -47 -8 -89 -19 -95 -25 -14 -14 -9 -13 141 20 73 17 151 39 173 50
21 11 79 26 129 34 50 8 134 29 186 45 62 20 116 31 155 31 87 0 82 -16 -8
-23 -42 -3 -111 -18 -152 -32 -41 -14 -116 -34 -165 -44 -50 -10 -132 -33
-182 -50 -51 -18 -128 -36 -170 -41 -43 -5 -85 -11 -93 -14 -13 -5 -15 -43
-15 -256 0 -191 3 -250 12 -250 9 0 13 40 15 153 3 149 3 152 26 155 22 3 22
3 22 -132 0 -84 4 -136 10 -136 6 0 10 62 10 166 l0 166 -30 -7 c-37 -8 -54
20 -25 41 16 12 21 11 36 -2 15 -14 17 -11 23 30 7 43 9 46 49 57 23 6 76 22
117 35 41 14 83 28 93 31 12 4 17 0 17 -15 0 -25 -103 -76 -190 -93 -33 -6
-63 -16 -67 -22 -9 -14 58 -1 142 29 108 38 110 39 122 12 11 -21 12 -20 12
17 2 75 8 83 70 95 31 6 98 24 150 40 51 17 104 30 117 30 l24 0 0 -222 c0
-123 -3 -233 -6 -246 -5 -17 -13 -23 -33 -22 -53 4 -78 0 -97 -16 -18 -15 -17
-15 16 -11 19 3 53 2 75 -2 l40 -7 -75 -18 c-41 -10 -82 -22 -90 -27 -28 -15
17 -10 103 12 87 22 178 22 200 0 10 -10 1 -11 -43 -6 -57 6 -244 -25 -264
-45 -15 -15 13 -12 117 11 93 21 169 21 190 0 8 -8 -6 -11 -54 -11 -35 0 -106
-7 -158 -15 -52 -9 -100 -14 -106 -12 -6 3 -53 -4 -105 -14 -52 -10 -96 -16
-98 -14 -8 8 37 24 98 35 64 12 106 27 97 36 -2 3 -43 -4 -90 -14 -47 -11 -97
-17 -110 -15 -31 6 -164 -14 -186 -28 -11 -7 1 -8 44 -4 33 3 68 8 78 11 9 3
17 1 17 -5 0 -10 -21 -15 -203 -47 -54 -10 -100 -21 -103 -26 -7 -10 2 -10 51
3 55 13 248 40 253 34 9 -9 -49 -25 -115 -31 -38 -3 -90 -12 -117 -20 -27 -8
-63 -14 -79 -14 -24 0 -27 3 -18 14 9 11 7 15 -11 19 -22 6 -22 7 -3 21 19 14
19 15 -8 25 -38 15 -85 13 -122 -4 l-30 -13 50 -2 c53 -1 48 -6 -25 -29 -34
-10 -33 -11 16 -7 75 7 89 -10 20 -24 -69 -14 -73 -24 -6 -18 70 7 68 -18 -2
-29 l-53 -8 -3 -394 c-2 -318 -5 -398 -16 -410 -8 -9 -28 -44 -45 -78 -17 -34
-38 -64 -48 -66 -71 -18 102 3 542 68 281 41 526 77 545 79 27 4 30 3 15 -4
-11 -5 -263 -46 -560 -91 -297 -46 -541 -83 -543 -84 -1 -1 5 -18 13 -38 8
-20 15 -52 15 -72 l0 -35 -957 -3 c-527 -1 311 -2 1862 -2 1551 0 2394 1 1873
2 l-948 3 0 533 c0 453 2 536 15 553 8 10 15 40 15 65 0 36 -5 50 -25 69 -33
31 -49 83 -42 135 4 29 2 47 -6 53 -21 18 -34 0 -40 -57 -4 -30 -12 -59 -18
-65 -8 -8 -10 59 -7 262 l4 273 -29 25 c-36 30 -56 82 -57 147 0 41 -3 48 -17
45 -13 -2 -20 -18 -26 -58 -4 -30 -13 -61 -21 -68 -19 -19 -65 -5 -70 22 -27
133 -53 223 -83 284 -49 101 -134 185 -239 240 -45 23 -89 53 -98 67 -20 30
-20 93 -1 165 l15 55 -35 67 c-19 37 -35 76 -35 87 0 34 -12 51 -35 51 -13 0
-26 -4 -30 -9z m262 -736 c47 -20 39 -26 -25 -18 -34 4 -52 10 -52 19 0 18 32
18 77 -1z m36 -57 c51 -26 43 -31 -18 -12 -27 8 -54 12 -60 10 -5 -3 -1 -7 10
-11 11 -3 38 -14 60 -24 l40 -19 -45 4 -45 4 43 -19 c23 -11 42 -23 42 -27 0
-4 -19 -4 -42 0 l-43 6 48 -25 c26 -14 47 -27 47 -30 0 -2 -21 3 -46 12 -42
14 -49 21 -75 77 -39 82 -38 90 8 81 20 -4 55 -16 76 -27z m-137 -224 c-3 -9
-6 -128 -6 -266 l0 -249 -22 3 c-22 3 -23 8 -28 118 -3 63 -4 181 -2 263 l3
147 31 0 c23 0 29 -4 24 -16z m-775 -170 c11 -31 12 -30 -24 -39 -27 -7 -28
-6 -21 21 13 53 29 60 45 18z m947 -26 c8 -8 12 -58 12 -160 0 -127 -2 -147
-15 -142 -12 5 -15 29 -15 129 0 107 -2 125 -20 148 -11 14 -20 28 -20 31 0
11 46 6 58 -6z m227 -73 c24 -23 25 -29 25 -165 0 -138 0 -140 -20 -130 -18
10 -20 21 -20 126 0 95 -3 121 -20 154 -18 34 -18 40 -5 40 9 0 27 -11 40 -25z
m-1185 -35 c-20 -13 -43 -13 -35 0 3 6 16 10 28 10 18 0 19 -2 7 -10z m695
-720 c-6 -340 -6 -390 7 -390 20 0 28 136 28 497 l0 283 36 0 c33 0 36 -2 30
-22 -3 -13 -6 -197 -6 -410 l0 -388 -28 0 c-16 0 -31 -3 -35 -6 -3 -3 3 -30
13 -59 l19 -54 -52 -10 c-68 -14 -1030 -152 -1033 -148 -7 6 58 108 71 113 49
15 50 15 36 23 -10 7 -13 65 -12 276 1 244 2 269 18 281 17 13 17 13 1 14 -18
0 -24 15 -10 23 4 3 26 8 50 12 46 7 61 -10 17 -21 -31 -8 -33 -26 -2 -22 l22
3 -2 -275 c-2 -173 1 -268 6 -255 5 11 10 158 10 327 l1 308 23 4 c12 3 60 13
107 22 85 17 132 33 99 34 -9 0 -58 -9 -110 -20 -52 -11 -97 -20 -101 -20 -5
0 -8 17 -8 38 l0 39 73 13 c95 17 167 38 167 50 0 14 -12 12 -110 -10 -99 -23
-123 -24 -118 -8 7 19 196 58 228 46 17 -5 43 -5 68 1 l42 9 0 -43 0 -42 -62
-13 c-52 -10 -59 -14 -41 -21 12 -4 36 -4 55 2 47 13 48 12 48 -20 0 -26 -4
-30 -38 -36 -41 -7 -79 -25 -52 -25 8 0 32 4 53 9 28 7 37 6 37 -4 0 -8 -22
-18 -55 -25 -30 -6 -57 -16 -61 -21 -6 -10 9 -8 83 11 29 7 31 6 36 -24 2 -17
2 -137 0 -266 -3 -167 -1 -231 6 -220 7 10 11 120 11 315 l0 300 73 12 c105
17 184 36 166 40 -8 2 -64 -5 -122 -15 l-107 -19 0 42 0 42 112 22 c62 12 117
26 122 31 20 20 -7 24 -77 11 -134 -25 -130 -25 -125 -11 7 21 186 55 213 40
16 -9 33 -8 76 3 30 9 67 16 83 16 l28 1 -7 -390z m-835 170 c0 -36 -3 -40
-24 -40 -13 0 -31 -3 -40 -6 -13 -5 -16 2 -16 34 0 42 7 48 58 51 19 1 22 -4
22 -39z m0 -85 c0 -19 -7 -26 -27 -31 -16 -3 -34 -7 -40 -10 -9 -2 -13 7 -13
25 0 32 10 39 53 40 22 1 27 -3 27 -24z m1189 -91 c19 -25 21 -40 21 -199 0
-95 -3 -187 -6 -204 -6 -30 -8 -31 -25 -15 -17 15 -19 34 -19 195 l0 178 -31
36 -31 35 35 0 c26 0 41 -7 56 -26z m277 -49 c12 -18 14 -61 12 -224 -3 -200
-3 -202 -23 -187 -19 13 -20 26 -20 190 l0 175 -27 28 c-33 34 -34 40 -10 45
28 6 52 -3 68 -27z m-566 -558 c0 -9 -51 -21 -172 -41 -305 -49 -847 -126
-885 -126 -95 0 11 22 352 74 368 56 683 104 698 105 4 1 7 -5 7 -12z m-10
-172 l0 -115 -528 0 c-291 0 -531 2 -534 5 -3 3 -2 22 1 42 l6 37 500 72 c275
39 512 72 528 73 l27 1 0 -115z"/>
<path d="M3006 3515 c-56 -15 -91 -41 -41 -30 82 19 105 27 100 35 -4 6 -7 10
-8 9 -1 0 -24 -7 -51 -14z"/>
<path d="M2980 3426 c-29 -8 -40 -15 -32 -20 11 -6 11 -11 0 -24 -11 -13 -10
-15 4 -9 10 3 40 9 68 13 27 4 50 10 50 15 0 11 -2 11 -57 0 -24 -5 -43 -5
-43 0 0 4 17 11 38 15 20 4 44 10 52 15 22 13 -25 10 -80 -5z"/>
<path d="M2783 3206 c-25 -21 -28 -31 -31 -100 -5 -87 8 -137 18 -71 5 38 8
34 54 -104 53 -158 54 -155 -19 -167 -75 -12 -74 -26 2 -20 120 8 113 -6 113
230 0 202 0 203 -25 230 -31 33 -74 34 -112 2z"/>
<path d="M2443 3160 c-38 -15 -51 -49 -54 -140 -2 -47 -1 -107 1 -135 3 -47 4
-45 9 25 l6 75 48 -134 c49 -138 49 -150 5 -151 -9 0 -20 -4 -23 -10 -6 -9 16
-8 83 6 22 4 22 5 22 210 l0 206 -29 29 c-32 31 -35 32 -68 19z"/>
<path d="M3010 4930 c0 -49 4 -90 8 -90 23 0 32 30 32 102 0 71 -2 78 -20 78
-19 0 -20 -7 -20 -90z"/>
<path d="M3045 4529 c6 -42 4 -52 -11 -64 -17 -13 -15 -14 24 -15 37 0 43 3
38 18 -3 9 -8 31 -11 47 -13 57 -16 65 -32 65 -12 0 -14 -9 -8 -51z"/>
<path d="M2726 4442 c4 -30 2 -57 -5 -71 -11 -20 -9 -21 24 -21 19 0 35 1 35
3 -1 1 -9 31 -19 66 -22 81 -45 96 -35 23z"/>
<path d="M3030 4426 c-19 -7 -36 -20 -38 -30 -3 -15 -1 -15 33 1 30 14 41 15
67 5 41 -15 64 1 34 24 -24 17 -49 17 -96 0z"/>
<path d="M2421 4398 c9 -7 16 -20 16 -28 0 -8 3 -29 7 -47 7 -29 5 -33 -19
-39 -33 -8 -15 -24 28 -24 27 0 28 2 21 38 -18 105 -19 107 -44 110 -22 2 -23
1 -9 -10z"/>
<path d="M2371 4187 c-19 -7 -36 -17 -38 -23 -4 -11 122 18 135 31 10 10 -63
4 -97 -8z"/>
<path d="M2990 4184 c-24 -14 -24 -14 15 -8 55 9 80 23 40 23 -16 0 -41 -6
-55 -15z"/>
<path d="M2863 4142 c-57 -16 -91 -32 -65 -32 20 0 146 31 162 40 25 15 -27
10 -97 -8z"/>
<path d="M2995 4120 c-17 -7 -16 -9 10 -10 l30 -2 -34 -14 c-46 -20 -33 -27
23 -13 41 10 64 29 35 29 -5 0 -7 5 -4 10 7 12 -32 12 -60 0z"/>
<path d="M2846 4045 c-36 -33 -33 -63 13 -170 22 -49 43 -102 46 -117 7 -26 5
-28 -23 -28 -16 0 -40 -9 -53 -19 -24 -19 -24 -19 45 -7 37 7 72 20 77 27 5 8
9 74 9 147 l0 134 -29 29 c-36 35 -50 36 -85 4z"/>
<path d="M2683 4043 c-22 -8 -14 -21 10 -16 21 4 21 4 -3 -12 l-25 -16 38 5
37 5 0 -155 c0 -130 -2 -154 -15 -154 -8 0 -14 3 -13 8 2 8 -11 116 -18 150
-7 32 -24 27 -24 -8 0 -20 -5 -30 -15 -30 -12 0 -14 10 -10 53 5 42 2 58 -14
85 -27 42 -60 43 -96 0 -31 -37 -30 -43 18 -153 56 -126 56 -129 5 -146 l-43
-14 36 -3 c20 -2 60 6 88 17 42 16 58 17 77 9 13 -6 27 -8 30 -5 4 3 8 92 10
197 l4 190 -32 -1 c-18 0 -39 -3 -45 -6z m-9 -268 c4 -14 2 -34 -4 -45 -8 -15
-6 -19 13 -23 16 -3 13 -5 -10 -6 -31 -1 -33 1 -33 33 0 63 22 89 34 41z"/>
<path d="M3020 3929 c0 -12 5 -39 12 -60 10 -34 9 -42 -7 -59 -18 -20 -17 -20
19 -20 31 0 36 3 32 18 -3 9 -8 35 -11 57 -11 74 -15 85 -30 85 -9 0 -15 -9
-15 -21z"/>
<path d="M2235 3780 c-4 -6 -1 -33 5 -61 7 -27 9 -61 6 -74 -6 -22 -3 -25 23
-25 l29 0 -14 47 c-8 27 -12 60 -9 75 5 20 1 29 -14 37 -14 8 -22 8 -26 1z"/>
<path d="M2256 2054 c-87 -21 -173 -71 -246 -144 -77 -77 -124 -166 -147 -278
-47 -229 78 -476 292 -578 159 -76 326 -71 501 16 376 185 378 748 4 932 -128
63 -279 82 -404 52z m270 -95 c176 -66 294 -243 294 -439 0 -181 -95 -335
-250 -409 -48 -22 -68 -26 -160 -26 -98 0 -110 2 -173 32 -79 38 -168 122
-209 199 -137 256 -16 586 242 659 69 19 181 12 256 -16z"/>
<path d="M4655 2051 l-230 -6 63 -19 c94 -28 96 -33 100 -253 l4 -183 -296 0
-296 0 0 183 c0 146 3 187 15 204 8 12 43 31 80 43 36 12 65 24 65 26 0 2
-100 4 -222 3 l-223 0 65 -24 c107 -40 100 -3 100 -497 l0 -429 -25 -23 c-14
-13 -49 -30 -78 -39 -51 -15 -46 -15 168 -15 l220 0 -60 19 c-103 32 -105 36
-105 265 l0 194 296 0 296 0 -4 -200 c-3 -198 -3 -200 -28 -224 -14 -14 -50
-32 -80 -40 -53 -14 -47 -15 165 -14 l220 0 -65 21 c-46 16 -68 29 -77 47 -16
32 -19 851 -3 881 13 23 56 46 107 58 32 7 47 4 96 -22 117 -61 195 -158 313
-389 l65 -129 -3 -194 c-3 -224 -3 -223 -99 -255 l-54 -19 220 1 c194 0 215 1
175 12 -78 22 -104 39 -117 76 -7 22 -12 106 -12 226 l-1 192 81 158 c118 231
148 267 274 332 l60 31 -195 0 -195 0 64 -29 c59 -28 63 -31 57 -57 -10 -43
-80 -179 -137 -267 l-51 -79 -27 49 c-15 27 -48 84 -72 128 -58 104 -145 198
-214 231 -65 32 -91 34 -400 26z"/>
<path d="M170 2046 c0 -2 28 -13 62 -26 33 -12 72 -33 85 -46 l23 -23 0 -415
0 -416 -28 -30 c-16 -19 -49 -38 -82 -49 l-55 -18 116 -8 c64 -4 185 -5 270
-3 140 3 159 6 210 30 121 56 189 150 189 264 0 108 -61 183 -187 230 -27 9
-52 20 -56 24 -5 4 11 19 36 33 88 52 137 129 137 217 0 119 -74 200 -208 229
-47 10 -512 17 -512 7z m471 -77 c37 -8 64 -22 93 -49 41 -38 41 -39 41 -113
0 -68 -3 -80 -30 -119 -43 -60 -122 -99 -214 -106 l-71 -5 0 183 c0 214 2 220
81 220 26 0 71 -5 100 -11z m35 -475 c106 -29 164 -99 164 -199 -1 -132 -101
-215 -260 -215 -53 0 -73 4 -94 21 l-26 20 0 194 c0 176 2 194 18 198 29 7
144 -4 198 -19z"/>
<path d="M1000 2047 c0 -2 27 -14 60 -26 106 -39 100 -9 100 -496 0 -485 6
-453 -95 -485 l-60 -19 220 0 220 1 -61 19 c-99 31 -98 30 -102 250 -4 235 -4
235 124 87 240 -281 374 -383 496 -376 l53 3 -55 36 c-97 63 -184 144 -306
286 -66 76 -123 143 -127 149 -4 7 21 22 66 39 89 35 160 101 177 166 17 60 8
165 -18 214 -27 54 -76 99 -137 127 -47 22 -64 23 -302 26 -139 2 -253 1 -253
-1z m476 -78 c64 -20 134 -123 134 -198 0 -93 -68 -179 -160 -204 -30 -9 -81
-18 -112 -22 l-58 -6 0 198 c0 213 5 236 53 246 28 6 102 -1 143 -14z"/>
<path d="M2970 2038 c14 -7 44 -21 68 -31 73 -33 72 -24 72 -492 l0 -416 -24
-24 c-13 -13 -43 -29 -67 -35 -24 -6 -48 -12 -54 -14 -16 -4 248 -16 270 -11
11 2 52 4 90 5 l70 1 -62 20 c-99 31 -103 40 -103 235 0 90 4 164 8 164 5 0
34 -5 66 -11 103 -21 227 22 313 107 60 60 84 118 84 200 0 142 -62 234 -193
287 -49 20 -74 22 -308 24 -200 2 -250 0 -230 -9z m497 -97 c113 -57 152 -198
88 -320 -43 -83 -149 -129 -266 -116 l-59 7 0 213 c0 210 0 214 23 230 31 23
158 15 214 -14z"/>
<path d="M315 701 c-95 -44 -131 -141 -85 -231 37 -74 115 -106 214 -90 32 5
60 11 61 12 2 2 6 21 10 43 l7 40 -29 -34 c-24 -28 -37 -34 -78 -38 -121 -10
-201 108 -146 215 42 82 179 109 216 43 l15 -26 -2 40 -3 40 -70 2 c-51 2 -81
-2 -110 -16z"/>
<path d="M665 701 c-95 -44 -129 -133 -86 -227 70 -155 309 -119 328 49 10 87
-41 163 -124 186 -52 15 -72 13 -118 -8z m119 -25 c90 -38 115 -166 45 -235
-108 -108 -281 32 -213 174 31 66 97 91 168 61z"/>
<path d="M1822 699 c-47 -24 -86 -75 -97 -126 -13 -64 32 -145 100 -180 35
-19 117 -21 168 -4 35 12 37 15 37 53 0 25 7 49 17 60 15 17 14 18 -43 17 -57
0 -58 -1 -36 -16 29 -21 30 -67 0 -87 -51 -36 -149 -5 -182 57 -26 48 -19 137
15 173 44 48 124 68 170 43 12 -6 27 -25 34 -42 l14 -32 1 46 c0 55 -6 59 -93
59 -43 0 -75 -7 -105 -21z"/>
<path d="M4698 713 l-118 -4 1 -37 c0 -34 1 -35 11 -14 9 17 20 22 50 22 l38
0 0 -140 c0 -136 -1 -141 -22 -150 -18 -7 -7 -9 42 -9 61 -1 63 0 42 15 -21
14 -22 22 -22 150 l0 135 42 -3 c34 -2 45 -8 55 -28 12 -24 13 -22 13 23 0 26
-3 46 -7 45 -5 -1 -61 -4 -125 -5z"/>
<path d="M4954 702 c-165 -78 -113 -325 70 -325 28 0 65 7 83 16 37 20 81 70
89 103 11 42 -2 120 -24 151 -44 62 -147 88 -218 55z m134 -32 c94 -58 96
-206 3 -255 -78 -40 -167 7 -196 103 -16 54 27 141 79 162 36 15 80 11 114
-10z"/>
<path d="M5518 679 c66 -65 95 -130 95 -208 0 -50 -4 -67 -19 -78 -16 -11 -11
-13 39 -13 l57 0 -20 20 c-16 16 -20 33 -20 80 0 73 41 163 92 204 l33 26 -55
0 c-41 -1 -51 -3 -38 -11 19 -11 16 -25 -19 -82 l-24 -38 -32 47 c-34 51 -67
78 -107 89 -22 6 -19 1 18 -36z"/>
<path d="M958 698 c21 -11 22 -16 22 -149 0 -131 -1 -139 -22 -153 -21 -15
-15 -16 85 -16 l107 0 0 32 0 32 -21 -23 c-16 -17 -30 -21 -62 -19 l-42 3 -3
143 c-3 140 -2 143 20 152 17 7 7 9 -42 9 -54 0 -61 -2 -42 -11z"/>
<path d="M1218 700 c21 -9 22 -13 22 -154 0 -128 -2 -146 -17 -155 -13 -8 10
-10 85 -11 l102 0 0 30 0 30 -21 -21 c-15 -15 -30 -19 -62 -17 l-42 3 -3 135
c-3 128 -2 136 19 153 21 17 20 17 -42 16 -49 0 -59 -2 -41 -9z"/>
<path d="M1483 699 c15 -9 17 -27 17 -154 0 -127 -2 -145 -17 -154 -13 -8 11
-10 88 -11 112 0 119 3 119 48 0 13 -4 11 -20 -6 -16 -17 -32 -22 -70 -22 -57
0 -64 11 -58 91 3 42 5 44 37 47 24 3 40 -3 59 -20 21 -19 24 -20 19 -5 -4 10
-7 30 -7 45 0 20 -3 23 -12 14 -7 -7 -32 -12 -55 -12 l-44 0 3 63 3 62 47 3
c39 3 49 -1 62 -20 l16 -22 0 32 0 32 -102 0 c-75 -1 -98 -3 -85 -11z"/>
<path d="M2118 694 c21 -14 22 -22 22 -153 0 -133 -1 -138 -22 -149 -18 -8 1
-11 90 -11 l112 -1 0 32 c0 32 0 32 -16 10 -12 -18 -25 -22 -70 -22 l-54 0 0
70 0 70 35 0 c22 0 41 -8 55 -22 l20 -22 0 42 c0 39 -2 42 -19 32 -11 -5 -36
-10 -55 -10 l-36 0 0 65 0 65 42 0 c29 0 49 -7 65 -22 l23 -21 0 31 0 32 -107
0 c-100 0 -106 -1 -85 -16z"/>
<path d="M2638 695 c21 -15 22 -23 22 -154 0 -133 -1 -138 -22 -149 -19 -9
-12 -11 42 -11 54 0 61 2 43 11 -20 9 -23 19 -23 63 l0 52 47 6 c90 10 134
100 79 164 -23 26 -30 28 -118 31 -88 3 -92 3 -70 -13z m152 -35 c45 -45 11
-120 -55 -120 l-35 0 0 70 0 70 35 0 c22 0 43 -8 55 -20z"/>
<path d="M2908 698 c21 -11 22 -16 22 -155 0 -140 -1 -144 -22 -153 -18 -7 -7
-9 41 -9 55 -1 62 1 47 12 -19 14 -33 85 -22 113 5 14 21 3 80 -55 41 -39 80
-71 87 -72 20 -2 254 3 256 4 1 1 4 16 8 32 l6 30 -17 -22 c-13 -19 -26 -23
-70 -23 -61 0 -68 10 -62 91 3 42 5 44 36 47 22 2 41 -3 53 -14 18 -17 19 -16
19 21 0 30 -3 36 -12 27 -7 -7 -32 -12 -55 -12 l-44 0 3 63 3 62 42 3 c32 2
47 -2 62 -17 l21 -21 0 30 0 30 -102 0 c-84 0 -99 -2 -85 -13 16 -11 17 -30
15 -157 l-3 -145 -27 -3 c-21 -3 -38 9 -87 59 -34 35 -61 66 -61 71 0 4 13 15
30 24 40 24 54 66 36 109 -20 46 -42 55 -138 54 -67 0 -79 -2 -60 -11z m140
-25 c51 -44 29 -108 -40 -120 l-38 -6 0 49 c0 72 8 94 35 94 13 0 32 -8 43
-17z"/>
<path d="M3478 695 c21 -15 22 -23 22 -154 0 -133 -1 -138 -22 -149 -19 -9
-12 -11 42 -11 54 0 61 2 43 11 -20 9 -23 19 -23 65 l0 53 34 0 c41 0 98 37
110 71 11 32 3 69 -23 100 -17 22 -28 24 -113 27 -88 3 -92 3 -70 -13z m152
-35 c23 -23 25 -51 9 -83 -16 -30 -28 -37 -66 -37 l-33 0 0 70 0 70 35 0 c22
0 43 -8 55 -20z"/>
<path d="M3792 638 c-32 -103 -88 -227 -109 -244 -16 -12 -13 -13 31 -14 43 0
47 2 32 13 -16 12 -16 15 2 62 l20 50 54 3 55 3 18 -47 c14 -37 15 -51 6 -66
-11 -17 -6 -18 101 -18 77 1 108 4 97 10 -20 12 -33 71 -24 110 l6 29 62 -66
c73 -77 104 -93 170 -86 40 5 45 7 31 18 -16 11 -16 16 1 63 l19 52 56 0 56 0
19 -52 c18 -50 18 -51 0 -65 -17 -11 -12 -13 41 -13 45 1 55 3 41 11 -24 14
-45 57 -93 194 -50 142 -65 154 -90 69 -26 -92 -84 -227 -105 -249 -19 -19
-19 -19 -84 45 -36 35 -65 68 -65 72 0 4 13 14 29 22 56 30 64 107 14 146 -21
16 -41 20 -107 20 -73 -1 -79 -2 -62 -15 17 -13 20 -30 22 -142 2 -142 -4
-166 -44 -161 -33 4 -53 42 -109 206 -46 137 -59 142 -91 40z m363 27 c14 -13
25 -33 25 -43 0 -30 -31 -61 -67 -68 -41 -8 -48 6 -38 81 6 50 9 55 31 55 14
0 36 -11 49 -25z m-301 -102 c7 -21 4 -23 -33 -23 -45 0 -44 -6 -10 78 l11 27
13 -30 c7 -16 16 -40 19 -52z m589 22 l16 -45 -41 0 c-34 0 -39 3 -33 18 4 9
12 29 17 45 14 38 24 34 41 -18z"/>
<path d="M5248 694 c21 -14 22 -22 22 -153 0 -133 -1 -138 -22 -149 -19 -9
-12 -11 42 -11 54 0 61 2 43 11 -21 10 -23 18 -23 77 l1 66 62 -67 c56 -60
108 -98 136 -98 6 0 -24 34 -67 77 -69 69 -75 77 -57 87 71 41 85 98 36 147
-28 27 -34 29 -112 29 -78 0 -82 -1 -61 -16z m142 -24 c20 -20 26 -65 12 -86
-11 -16 -48 -34 -71 -34 -19 0 -21 6 -21 70 l0 70 30 0 c17 0 39 -9 50 -20z"/>
</g>
</svg>
